<svg id="visual" viewBox="0 0 1900 700" width="1900" height="700" xmlns="http://www.w3.org/2000/svg" xmlns:xlink="http://www.w3.org/1999/xlink" version="1.1"><path d="M0 85L24.3 85C48.7 85 97.3 85 146 86.2C194.7 87.3 243.3 89.7 292 85C340.7 80.3 389.3 68.7 438.2 66.3C487 64 536 71 584.8 67.5C633.7 64 682.3 50 731 47.7C779.7 45.3 828.3 54.7 877 62.8C925.7 71 974.3 78 1023 82.7C1071.7 87.3 1120.3 89.7 1169 85C1217.7 80.3 1266.3 68.7 1315.2 67.5C1364 66.3 1413 75.7 1461.8 83.8C1510.7 92 1559.3 99 1608 93.2C1656.7 87.3 1705.3 68.7 1754 67.5C1802.7 66.3 1851.3 82.7 1875.7 90.8L1900 99L1900 0L1875.7 0C1851.3 0 1802.7 0 1754 0C1705.3 0 1656.7 0 1608 0C1559.3 0 1510.7 0 1461.8 0C1413 0 1364 0 1315.2 0C1266.3 0 1217.7 0 1169 0C1120.3 0 1071.7 0 1023 0C974.3 0 925.7 0 877 0C828.3 0 779.7 0 731 0C682.3 0 633.7 0 584.8 0C536 0 487 0 438.2 0C389.3 0 340.7 0 292 0C243.3 0 194.7 0 146 0C97.3 0 48.7 0 24.3 0L0 0Z" fill="#31a2f9"></path><path d="M0 113L24.3 113C48.7 113 97.3 113 146 120C194.7 127 243.3 141 292 135.2C340.7 129.3 389.3 103.7 438.2 102.5C487 101.3 536 124.7 584.8 123.5C633.7 122.3 682.3 96.7 731 89.7C779.7 82.7 828.3 94.3 877 106C925.7 117.7 974.3 129.3 1023 141C1071.7 152.7 1120.3 164.3 1169 159.7C1217.7 155 1266.3 134 1315.2 132.8C1364 131.7 1413 150.3 1461.8 162C1510.7 173.7 1559.3 178.3 1608 167.8C1656.7 157.3 1705.3 131.7 1754 122.3C1802.7 113 1851.3 120 1875.7 123.5L1900 127L1900 97L1875.7 88.8C1851.3 80.7 1802.7 64.3 1754 65.5C1705.3 66.7 1656.7 85.3 1608 91.2C1559.3 97 1510.7 90 1461.8 81.8C1413 73.7 1364 64.3 1315.2 65.5C1266.3 66.7 1217.7 78.3 1169 83C1120.3 87.7 1071.7 85.3 1023 80.7C974.3 76 925.7 69 877 60.8C828.3 52.7 779.7 43.3 731 45.7C682.3 48 633.7 62 584.8 65.5C536 69 487 62 438.2 64.3C389.3 66.7 340.7 78.3 292 83C243.3 87.7 194.7 85.3 146 84.2C97.3 83 48.7 83 24.3 83L0 83Z" fill="#63affa"></path><path d="M0 134L24.3 135.2C48.7 136.3 97.3 138.7 146 150.3C194.7 162 243.3 183 292 184.2C340.7 185.3 389.3 166.7 438.2 165.5C487 164.3 536 180.7 584.8 172.5C633.7 164.3 682.3 131.7 731 125.8C779.7 120 828.3 141 877 150.3C925.7 159.7 974.3 157.3 1023 165.5C1071.7 173.7 1120.3 192.3 1169 190C1217.7 187.7 1266.3 164.3 1315.2 167.8C1364 171.3 1413 201.7 1461.8 212.2C1510.7 222.7 1559.3 213.3 1608 204C1656.7 194.7 1705.3 185.3 1754 177.2C1802.7 169 1851.3 162 1875.7 158.5L1900 155L1900 125L1875.7 121.5C1851.3 118 1802.7 111 1754 120.3C1705.3 129.7 1656.7 155.3 1608 165.8C1559.3 176.3 1510.7 171.7 1461.8 160C1413 148.3 1364 129.7 1315.2 130.8C1266.3 132 1217.7 153 1169 157.7C1120.3 162.3 1071.7 150.7 1023 139C974.3 127.3 925.7 115.7 877 104C828.3 92.3 779.7 80.7 731 87.7C682.3 94.7 633.7 120.3 584.8 121.5C536 122.7 487 99.3 438.2 100.5C389.3 101.7 340.7 127.3 292 133.2C243.3 139 194.7 125 146 118C97.3 111 48.7 111 24.3 111L0 111Z" fill="#85bbfb"></path><path d="M0 218L24.3 232C48.7 246 97.3 274 146 290.3C194.7 306.7 243.3 311.3 292 293.8C340.7 276.3 389.3 236.7 438.2 229.7C487 222.7 536 248.3 584.8 243.7C633.7 239 682.3 204 731 202.8C779.7 201.7 828.3 234.3 877 260C925.7 285.7 974.3 304.3 1023 310.2C1071.7 316 1120.3 309 1169 286.8C1217.7 264.7 1266.3 227.3 1315.2 234.3C1364 241.3 1413 292.7 1461.8 310.2C1510.7 327.7 1559.3 311.3 1608 300.8C1656.7 290.3 1705.3 285.7 1754 270.5C1802.7 255.3 1851.3 229.7 1875.7 216.8L1900 204L1900 153L1875.7 156.5C1851.3 160 1802.7 167 1754 175.2C1705.3 183.3 1656.7 192.7 1608 202C1559.3 211.3 1510.7 220.7 1461.8 210.2C1413 199.7 1364 169.3 1315.2 165.8C1266.3 162.3 1217.7 185.7 1169 188C1120.3 190.3 1071.7 171.7 1023 163.5C974.3 155.3 925.7 157.7 877 148.3C828.3 139 779.7 118 731 123.8C682.3 129.7 633.7 162.3 584.8 170.5C536 178.7 487 162.3 438.2 163.5C389.3 164.7 340.7 183.3 292 182.2C243.3 181 194.7 160 146 148.3C97.3 136.7 48.7 134.3 24.3 133.2L0 132Z" fill="#a1c8fd"></path><path d="M0 281L24.3 293.8C48.7 306.7 97.3 332.3 146 347.5C194.7 362.7 243.3 367.3 292 351C340.7 334.7 389.3 297.3 438.2 285.7C487 274 536 288 584.8 285.7C633.7 283.3 682.3 264.7 731 270.5C779.7 276.3 828.3 306.7 877 325.3C925.7 344 974.3 351 1023 348.7C1071.7 346.3 1120.3 334.7 1169 316C1217.7 297.3 1266.3 271.7 1315.2 278.7C1364 285.7 1413 325.3 1461.8 337C1510.7 348.7 1559.3 332.3 1608 328.8C1656.7 325.3 1705.3 334.7 1754 320.7C1802.7 306.7 1851.3 269.3 1875.7 250.7L1900 232L1900 202L1875.7 214.8C1851.3 227.7 1802.7 253.3 1754 268.5C1705.3 283.7 1656.7 288.3 1608 298.8C1559.3 309.3 1510.7 325.7 1461.8 308.2C1413 290.7 1364 239.3 1315.2 232.3C1266.3 225.3 1217.7 262.7 1169 284.8C1120.3 307 1071.7 314 1023 308.2C974.3 302.3 925.7 283.7 877 258C828.3 232.3 779.7 199.7 731 200.8C682.3 202 633.7 237 584.8 241.7C536 246.3 487 220.7 438.2 227.7C389.3 234.7 340.7 274.3 292 291.8C243.3 309.3 194.7 304.7 146 288.3C97.3 272 48.7 244 24.3 230L0 216Z" fill="#bad6fd"></path><path d="M0 449L24.3 461.8C48.7 474.7 97.3 500.3 146 520.2C194.7 540 243.3 554 292 552.8C340.7 551.7 389.3 535.3 438.2 526C487 516.7 536 514.3 584.8 488.7C633.7 463 682.3 414 731 407C779.7 400 828.3 435 877 466.5C925.7 498 974.3 526 1023 519C1071.7 512 1120.3 470 1169 450.2C1217.7 430.3 1266.3 432.7 1315.2 431.5C1364 430.3 1413 425.7 1461.8 424.5C1510.7 423.3 1559.3 425.7 1608 444.3C1656.7 463 1705.3 498 1754 507.3C1802.7 516.7 1851.3 500.3 1875.7 492.2L1900 484L1900 230L1875.7 248.7C1851.3 267.3 1802.7 304.7 1754 318.7C1705.3 332.7 1656.7 323.3 1608 326.8C1559.3 330.3 1510.7 346.7 1461.8 335C1413 323.3 1364 283.7 1315.2 276.7C1266.3 269.7 1217.7 295.3 1169 314C1120.3 332.7 1071.7 344.3 1023 346.7C974.3 349 925.7 342 877 323.3C828.3 304.7 779.7 274.3 731 268.5C682.3 262.7 633.7 281.3 584.8 283.7C536 286 487 272 438.2 283.7C389.3 295.3 340.7 332.7 292 349C243.3 365.3 194.7 360.7 146 345.5C97.3 330.3 48.7 304.7 24.3 291.8L0 279Z" fill="#d2e3fe"></path><path d="M0 638L24.3 636.8C48.7 635.7 97.3 633.3 146 634.5C194.7 635.7 243.3 640.3 292 635.7C340.7 631 389.3 617 438.2 606.5C487 596 536 589 584.8 597.2C633.7 605.3 682.3 628.7 731 632.2C779.7 635.7 828.3 619.3 877 621.7C925.7 624 974.3 645 1023 650.8C1071.7 656.7 1120.3 647.3 1169 634.5C1217.7 621.7 1266.3 605.3 1315.2 607.7C1364 610 1413 631 1461.8 631C1510.7 631 1559.3 610 1608 608.8C1656.7 607.7 1705.3 626.3 1754 633.3C1802.7 640.3 1851.3 635.7 1875.7 633.3L1900 631L1900 482L1875.7 490.2C1851.3 498.3 1802.7 514.7 1754 505.3C1705.3 496 1656.7 461 1608 442.3C1559.3 423.7 1510.7 421.3 1461.8 422.5C1413 423.7 1364 428.3 1315.2 429.5C1266.3 430.7 1217.7 428.3 1169 448.2C1120.3 468 1071.7 510 1023 517C974.3 524 925.7 496 877 464.5C828.3 433 779.7 398 731 405C682.3 412 633.7 461 584.8 486.7C536 512.3 487 514.7 438.2 524C389.3 533.3 340.7 549.7 292 550.8C243.3 552 194.7 538 146 518.2C97.3 498.3 48.7 472.7 24.3 459.8L0 447Z" fill="#e9f1ff"></path><path d="M0 701L24.3 701C48.7 701 97.3 701 146 701C194.7 701 243.3 701 292 701C340.7 701 389.3 701 438.2 701C487 701 536 701 584.8 701C633.7 701 682.3 701 731 701C779.7 701 828.3 701 877 701C925.7 701 974.3 701 1023 701C1071.7 701 1120.3 701 1169 701C1217.7 701 1266.3 701 1315.2 701C1364 701 1413 701 1461.8 701C1510.7 701 1559.3 701 1608 701C1656.7 701 1705.3 701 1754 701C1802.7 701 1851.3 701 1875.7 701L1900 701L1900 629L1875.7 631.3C1851.3 633.7 1802.7 638.3 1754 631.3C1705.3 624.3 1656.7 605.7 1608 606.8C1559.3 608 1510.7 629 1461.8 629C1413 629 1364 608 1315.2 605.7C1266.3 603.3 1217.7 619.7 1169 632.5C1120.3 645.3 1071.7 654.7 1023 648.8C974.3 643 925.7 622 877 619.7C828.3 617.3 779.7 633.7 731 630.2C682.3 626.7 633.7 603.3 584.8 595.2C536 587 487 594 438.2 604.5C389.3 615 340.7 629 292 633.7C243.3 638.3 194.7 633.7 146 632.5C97.3 631.3 48.7 633.7 24.3 634.8L0 636Z" fill="#ffffff"></path></svg>